<mxfile host="app.diagrams.net" modified="2024-05-17T16:43:42.839Z" agent="Mozilla/5.0 (Windows NT 10.0; Win64; x64) AppleWebKit/537.36 (KHTML, like Gecko) Chrome/124.0.0.0 Safari/537.36" etag="xE4zBHCB7NXnolRp1nXl" version="24.4.4" type="github">
  <diagram name="Page-1" id="exkaV0_K3e5TsBOGJDA7">
    <mxGraphModel dx="1764" dy="991" grid="1" gridSize="10" guides="1" tooltips="1" connect="1" arrows="1" fold="1" page="1" pageScale="1" pageWidth="850" pageHeight="1100" math="0" shadow="0">
      <root>
        <mxCell id="0" />
        <mxCell id="1" parent="0" />
        <mxCell id="FFYidb9wmgaieHD7aF0S-3" value="" style="edgeStyle=orthogonalEdgeStyle;rounded=0;orthogonalLoop=1;jettySize=auto;html=1;" edge="1" parent="1" source="FFYidb9wmgaieHD7aF0S-1" target="FFYidb9wmgaieHD7aF0S-2">
          <mxGeometry relative="1" as="geometry">
            <Array as="points">
              <mxPoint x="650" y="160" />
              <mxPoint x="440" y="160" />
            </Array>
          </mxGeometry>
        </mxCell>
        <mxCell id="FFYidb9wmgaieHD7aF0S-4" value="" style="edgeStyle=orthogonalEdgeStyle;rounded=0;orthogonalLoop=1;jettySize=auto;html=1;" edge="1" parent="1" source="FFYidb9wmgaieHD7aF0S-1" target="FFYidb9wmgaieHD7aF0S-2">
          <mxGeometry relative="1" as="geometry">
            <Array as="points">
              <mxPoint x="650" y="160" />
              <mxPoint x="440" y="160" />
            </Array>
          </mxGeometry>
        </mxCell>
        <mxCell id="FFYidb9wmgaieHD7aF0S-6" value="" style="edgeStyle=orthogonalEdgeStyle;rounded=0;orthogonalLoop=1;jettySize=auto;html=1;exitX=0.5;exitY=1;exitDx=0;exitDy=0;" edge="1" parent="1" source="FFYidb9wmgaieHD7aF0S-1" target="FFYidb9wmgaieHD7aF0S-5">
          <mxGeometry relative="1" as="geometry">
            <Array as="points">
              <mxPoint x="650" y="120" />
              <mxPoint x="650" y="160" />
              <mxPoint x="200" y="160" />
            </Array>
          </mxGeometry>
        </mxCell>
        <mxCell id="FFYidb9wmgaieHD7aF0S-23" value="" style="edgeStyle=orthogonalEdgeStyle;rounded=0;orthogonalLoop=1;jettySize=auto;html=1;" edge="1" parent="1" source="FFYidb9wmgaieHD7aF0S-1" target="FFYidb9wmgaieHD7aF0S-22">
          <mxGeometry relative="1" as="geometry">
            <Array as="points">
              <mxPoint x="650" y="160" />
              <mxPoint x="780" y="160" />
            </Array>
          </mxGeometry>
        </mxCell>
        <mxCell id="FFYidb9wmgaieHD7aF0S-29" value="" style="edgeStyle=orthogonalEdgeStyle;rounded=0;orthogonalLoop=1;jettySize=auto;html=1;" edge="1" parent="1" source="FFYidb9wmgaieHD7aF0S-1" target="FFYidb9wmgaieHD7aF0S-28">
          <mxGeometry relative="1" as="geometry">
            <Array as="points">
              <mxPoint x="650" y="160" />
              <mxPoint x="1240" y="160" />
            </Array>
          </mxGeometry>
        </mxCell>
        <mxCell id="FFYidb9wmgaieHD7aF0S-1" value="Direktur Utama" style="rounded=1;whiteSpace=wrap;html=1;" vertex="1" parent="1">
          <mxGeometry x="560" y="40" width="160" height="80" as="geometry" />
        </mxCell>
        <mxCell id="FFYidb9wmgaieHD7aF0S-19" value="" style="edgeStyle=orthogonalEdgeStyle;rounded=0;orthogonalLoop=1;jettySize=auto;html=1;" edge="1" parent="1" source="FFYidb9wmgaieHD7aF0S-2" target="FFYidb9wmgaieHD7aF0S-18">
          <mxGeometry relative="1" as="geometry" />
        </mxCell>
        <mxCell id="FFYidb9wmgaieHD7aF0S-2" value="Direktur Keuangan" style="rounded=1;whiteSpace=wrap;html=1;" vertex="1" parent="1">
          <mxGeometry x="360" y="200" width="160" height="80" as="geometry" />
        </mxCell>
        <mxCell id="FFYidb9wmgaieHD7aF0S-9" value="" style="edgeStyle=orthogonalEdgeStyle;rounded=0;orthogonalLoop=1;jettySize=auto;html=1;" edge="1" parent="1" source="FFYidb9wmgaieHD7aF0S-5" target="FFYidb9wmgaieHD7aF0S-8">
          <mxGeometry relative="1" as="geometry" />
        </mxCell>
        <mxCell id="FFYidb9wmgaieHD7aF0S-5" value="Direktur Pemasaran" style="rounded=1;whiteSpace=wrap;html=1;" vertex="1" parent="1">
          <mxGeometry x="120" y="200" width="160" height="80" as="geometry" />
        </mxCell>
        <mxCell id="FFYidb9wmgaieHD7aF0S-11" value="" style="edgeStyle=orthogonalEdgeStyle;rounded=0;orthogonalLoop=1;jettySize=auto;html=1;" edge="1" parent="1" source="FFYidb9wmgaieHD7aF0S-8" target="FFYidb9wmgaieHD7aF0S-10">
          <mxGeometry relative="1" as="geometry" />
        </mxCell>
        <mxCell id="FFYidb9wmgaieHD7aF0S-12" value="" style="edgeStyle=orthogonalEdgeStyle;rounded=0;orthogonalLoop=1;jettySize=auto;html=1;" edge="1" parent="1" source="FFYidb9wmgaieHD7aF0S-8" target="FFYidb9wmgaieHD7aF0S-10">
          <mxGeometry relative="1" as="geometry" />
        </mxCell>
        <mxCell id="FFYidb9wmgaieHD7aF0S-13" value="" style="edgeStyle=orthogonalEdgeStyle;rounded=0;orthogonalLoop=1;jettySize=auto;html=1;" edge="1" parent="1" source="FFYidb9wmgaieHD7aF0S-8" target="FFYidb9wmgaieHD7aF0S-10">
          <mxGeometry relative="1" as="geometry" />
        </mxCell>
        <mxCell id="FFYidb9wmgaieHD7aF0S-15" value="" style="edgeStyle=orthogonalEdgeStyle;rounded=0;orthogonalLoop=1;jettySize=auto;html=1;" edge="1" parent="1" source="FFYidb9wmgaieHD7aF0S-8" target="FFYidb9wmgaieHD7aF0S-14">
          <mxGeometry relative="1" as="geometry" />
        </mxCell>
        <mxCell id="FFYidb9wmgaieHD7aF0S-17" value="" style="edgeStyle=orthogonalEdgeStyle;rounded=0;orthogonalLoop=1;jettySize=auto;html=1;" edge="1" parent="1" source="FFYidb9wmgaieHD7aF0S-8" target="FFYidb9wmgaieHD7aF0S-16">
          <mxGeometry relative="1" as="geometry">
            <Array as="points">
              <mxPoint x="200" y="540" />
              <mxPoint x="200" y="540" />
            </Array>
          </mxGeometry>
        </mxCell>
        <mxCell id="FFYidb9wmgaieHD7aF0S-8" value="Manajer Pemasaran" style="rounded=1;whiteSpace=wrap;html=1;" vertex="1" parent="1">
          <mxGeometry x="120" y="360" width="160" height="80" as="geometry" />
        </mxCell>
        <mxCell id="FFYidb9wmgaieHD7aF0S-10" value="Staf Penjualan" style="rounded=1;whiteSpace=wrap;html=1;" vertex="1" parent="1">
          <mxGeometry y="520" width="160" height="80" as="geometry" />
        </mxCell>
        <mxCell id="FFYidb9wmgaieHD7aF0S-14" value="Staf Pemasaran" style="rounded=1;whiteSpace=wrap;html=1;" vertex="1" parent="1">
          <mxGeometry x="240" y="520" width="160" height="80" as="geometry" />
        </mxCell>
        <mxCell id="FFYidb9wmgaieHD7aF0S-16" value="Staf IT" style="rounded=1;whiteSpace=wrap;html=1;" vertex="1" parent="1">
          <mxGeometry x="120" y="640" width="160" height="80" as="geometry" />
        </mxCell>
        <mxCell id="FFYidb9wmgaieHD7aF0S-21" value="" style="edgeStyle=orthogonalEdgeStyle;rounded=0;orthogonalLoop=1;jettySize=auto;html=1;" edge="1" parent="1" source="FFYidb9wmgaieHD7aF0S-18" target="FFYidb9wmgaieHD7aF0S-20">
          <mxGeometry relative="1" as="geometry" />
        </mxCell>
        <mxCell id="FFYidb9wmgaieHD7aF0S-18" value="Manajemen Keuangan" style="rounded=1;whiteSpace=wrap;html=1;" vertex="1" parent="1">
          <mxGeometry x="360" y="360" width="160" height="80" as="geometry" />
        </mxCell>
        <mxCell id="FFYidb9wmgaieHD7aF0S-20" value="Staf Keuangan" style="rounded=1;whiteSpace=wrap;html=1;" vertex="1" parent="1">
          <mxGeometry x="480" y="520" width="160" height="80" as="geometry" />
        </mxCell>
        <mxCell id="FFYidb9wmgaieHD7aF0S-25" value="" style="edgeStyle=orthogonalEdgeStyle;rounded=0;orthogonalLoop=1;jettySize=auto;html=1;" edge="1" parent="1" source="FFYidb9wmgaieHD7aF0S-22" target="FFYidb9wmgaieHD7aF0S-24">
          <mxGeometry relative="1" as="geometry" />
        </mxCell>
        <mxCell id="FFYidb9wmgaieHD7aF0S-27" value="" style="edgeStyle=orthogonalEdgeStyle;rounded=0;orthogonalLoop=1;jettySize=auto;html=1;" edge="1" parent="1" source="FFYidb9wmgaieHD7aF0S-22" target="FFYidb9wmgaieHD7aF0S-26">
          <mxGeometry relative="1" as="geometry">
            <Array as="points">
              <mxPoint x="800" y="480" />
              <mxPoint x="980" y="480" />
            </Array>
          </mxGeometry>
        </mxCell>
        <mxCell id="FFYidb9wmgaieHD7aF0S-22" value="Manajemen Operational" style="rounded=1;whiteSpace=wrap;html=1;" vertex="1" parent="1">
          <mxGeometry x="720" y="360" width="160" height="80" as="geometry" />
        </mxCell>
        <mxCell id="FFYidb9wmgaieHD7aF0S-24" value="Bagian Gudang" style="rounded=1;whiteSpace=wrap;html=1;" vertex="1" parent="1">
          <mxGeometry x="720" y="520" width="160" height="80" as="geometry" />
        </mxCell>
        <mxCell id="FFYidb9wmgaieHD7aF0S-26" value="Bagian Pengiriman" style="rounded=1;whiteSpace=wrap;html=1;" vertex="1" parent="1">
          <mxGeometry x="960" y="520" width="160" height="80" as="geometry" />
        </mxCell>
        <mxCell id="FFYidb9wmgaieHD7aF0S-31" value="" style="edgeStyle=orthogonalEdgeStyle;rounded=0;orthogonalLoop=1;jettySize=auto;html=1;" edge="1" parent="1" source="FFYidb9wmgaieHD7aF0S-28" target="FFYidb9wmgaieHD7aF0S-30">
          <mxGeometry relative="1" as="geometry" />
        </mxCell>
        <mxCell id="FFYidb9wmgaieHD7aF0S-33" value="" style="edgeStyle=orthogonalEdgeStyle;rounded=0;orthogonalLoop=1;jettySize=auto;html=1;" edge="1" parent="1" source="FFYidb9wmgaieHD7aF0S-28" target="FFYidb9wmgaieHD7aF0S-32">
          <mxGeometry relative="1" as="geometry">
            <Array as="points">
              <mxPoint x="1280" y="480" />
              <mxPoint x="1520" y="480" />
            </Array>
          </mxGeometry>
        </mxCell>
        <mxCell id="FFYidb9wmgaieHD7aF0S-28" value="Manajer SDM &amp;amp; Umum" style="rounded=1;whiteSpace=wrap;html=1;" vertex="1" parent="1">
          <mxGeometry x="1200" y="360" width="160" height="80" as="geometry" />
        </mxCell>
        <mxCell id="FFYidb9wmgaieHD7aF0S-30" value="Bagian Umum" style="rounded=1;whiteSpace=wrap;html=1;" vertex="1" parent="1">
          <mxGeometry x="1200" y="520" width="160" height="80" as="geometry" />
        </mxCell>
        <mxCell id="FFYidb9wmgaieHD7aF0S-32" value="Staf SDM" style="rounded=1;whiteSpace=wrap;html=1;" vertex="1" parent="1">
          <mxGeometry x="1440" y="520" width="160" height="80" as="geometry" />
        </mxCell>
        <mxCell id="FFYidb9wmgaieHD7aF0S-34" value="" style="endArrow=none;dashed=1;html=1;rounded=0;" edge="1" parent="1">
          <mxGeometry width="50" height="50" relative="1" as="geometry">
            <mxPoint y="320" as="sourcePoint" />
            <mxPoint x="1610" y="320" as="targetPoint" />
          </mxGeometry>
        </mxCell>
      </root>
    </mxGraphModel>
  </diagram>
</mxfile>
